<?xml version="1.0" encoding="UTF-8" standalone="no"?>
<svg
   xmlns:dc="http://purl.org/dc/elements/1.1/"
   xmlns:cc="http://creativecommons.org/ns#"
   xmlns:rdf="http://www.w3.org/1999/02/22-rdf-syntax-ns#"
   xmlns:svg="http://www.w3.org/2000/svg"
   xmlns="http://www.w3.org/2000/svg"
   xmlns:sodipodi="http://sodipodi.sourceforge.net/DTD/sodipodi-0.dtd"
   xmlns:inkscape="http://www.inkscape.org/namespaces/inkscape"
   width="975.48578"
   height="481.69781"
   viewBox="0 0 258.09727 127.44921"
   version="1.1"
   id="svg8"
   inkscape:version="1.0.2-2 (e86c870879, 2021-01-15)"
   sodipodi:docname="logo.svg">
  <defs
     id="defs2">
    <rect
       x="130.60835"
       y="84.484184"
       width="132.15936"
       height="31.220833"
       id="rect656" />
    <rect
       x="135.20209"
       y="83.476036"
       width="100.40937"
       height="18.123959"
       id="rect617" />
    <rect
       x="133.48228"
       y="81.227081"
       width="102.92291"
       height="16.801041"
       id="rect611" />
    <rect
       x="133.34999"
       y="80.168747"
       width="124.08958"
       height="12.567708"
       id="rect605" />
    <inkscape:path-effect
       effect="spiro"
       id="path-effect400"
       is_visible="true"
       lpeversion="1" />
    <inkscape:path-effect
       effect="spiro"
       id="path-effect224"
       is_visible="true"
       lpeversion="1" />
    <inkscape:path-effect
       effect="spiro"
       id="path-effect222"
       is_visible="true"
       lpeversion="1" />
    <inkscape:path-effect
       effect="spiro"
       id="path-effect220"
       is_visible="true"
       lpeversion="1" />
    <inkscape:path-effect
       effect="spiro"
       id="path-effect218"
       is_visible="true"
       lpeversion="1" />
    <inkscape:path-effect
       effect="spiro"
       id="path-effect216"
       is_visible="true"
       lpeversion="1" />
    <inkscape:path-effect
       effect="spiro"
       id="path-effect214"
       is_visible="true"
       lpeversion="1" />
    <inkscape:path-effect
       effect="spiro"
       id="path-effect212"
       is_visible="true"
       lpeversion="1" />
    <inkscape:path-effect
       effect="spiro"
       id="path-effect210"
       is_visible="true"
       lpeversion="1" />
    <inkscape:path-effect
       effect="spiro"
       id="path-effect137"
       is_visible="true"
       lpeversion="1" />
    <inkscape:path-effect
       effect="spiro"
       id="path-effect133"
       is_visible="true"
       lpeversion="1" />
    <inkscape:path-effect
       effect="spiro"
       id="path-effect129"
       is_visible="true"
       lpeversion="1" />
    <inkscape:path-effect
       effect="spiro"
       id="path-effect125"
       is_visible="true"
       lpeversion="1" />
    <inkscape:path-effect
       effect="spiro"
       id="path-effect121"
       is_visible="true"
       lpeversion="1" />
    <inkscape:path-effect
       effect="spiro"
       id="path-effect113"
       is_visible="true"
       lpeversion="1" />
    <inkscape:path-effect
       effect="spiro"
       id="path-effect101"
       is_visible="true"
       lpeversion="1" />
    <inkscape:path-effect
       effect="spiro"
       id="path-effect97"
       is_visible="true"
       lpeversion="1" />
    <inkscape:path-effect
       effect="spiro"
       id="path-effect93"
       is_visible="true"
       lpeversion="1" />
    <inkscape:path-effect
       effect="spiro"
       id="path-effect81"
       is_visible="true"
       lpeversion="1" />
    <inkscape:path-effect
       effect="spiro"
       id="path-effect77"
       is_visible="true"
       lpeversion="1" />
    <inkscape:path-effect
       effect="spiro"
       id="path-effect73"
       is_visible="true"
       lpeversion="1" />
    <inkscape:path-effect
       effect="spiro"
       id="path-effect69"
       is_visible="true"
       lpeversion="1" />
    <inkscape:path-effect
       effect="spiro"
       id="path-effect65"
       is_visible="true"
       lpeversion="1" />
    <inkscape:path-effect
       effect="spiro"
       id="path-effect61"
       is_visible="true"
       lpeversion="1" />
    <inkscape:path-effect
       effect="spiro"
       id="path-effect57"
       is_visible="true"
       lpeversion="1" />
    <inkscape:path-effect
       effect="spiro"
       id="path-effect53"
       is_visible="true"
       lpeversion="1" />
    <inkscape:path-effect
       effect="spiro"
       id="path-effect49"
       is_visible="true"
       lpeversion="1" />
  </defs>
  <sodipodi:namedview
     id="base"
     pagecolor="#ffffff"
     bordercolor="#666666"
     borderopacity="1.0"
     inkscape:pageopacity="0.0"
     inkscape:pageshadow="2"
     inkscape:zoom="2"
     inkscape:cx="492.33312"
     inkscape:cy="241.92411"
     inkscape:document-units="px"
     inkscape:current-layer="layer9"
     inkscape:document-rotation="0"
     showgrid="false"
     units="px"
     fit-margin-top="0"
     fit-margin-left="0"
     fit-margin-right="0"
     fit-margin-bottom="0"
     inkscape:window-width="2560"
     inkscape:window-height="1377"
     inkscape:window-x="-8"
     inkscape:window-y="-8"
     inkscape:window-maximized="1" />
  <metadata
     id="metadata5">
    <rdf:RDF>
      <cc:Work
         rdf:about="">
        <dc:format>image/svg+xml</dc:format>
        <dc:type
           rdf:resource="http://purl.org/dc/dcmitype/StillImage" />
        <dc:title></dc:title>
      </cc:Work>
    </rdf:RDF>
  </metadata>
  <g
     inkscape:groupmode="layer"
     id="layer5"
     inkscape:label="body colour"
     style="display:inline"
     transform="translate(-2.6823238,-4.050857)">
    <path
       style="display:inline;fill:#0e74a6;fill-opacity:1;stroke-width:0.132292"
       d="m 88.138892,131.47604 c -2.09664,-0.29965 -4.55609,-1.75369 -6.70449,-3.96373 -2.19063,-2.25349 -3.26395,-4.18998 -4.39573,-7.93088 -1.03554,-3.42275 -1.33181,-5.18232 -1.58422,-9.40862 -0.46836,-7.8423 -1.89674,-12.599141 -4.50844,-15.014192 -1.79892,-1.663469 -3.70365,-1.873834 -5.54629,-0.612547 -1.80878,1.238112 -3.534929,4.646462 -4.471636,8.829399 -0.442712,1.97696 -0.588415,3.2952 -0.744231,6.73336 -0.186213,4.10889 -0.856017,7.53987 -2.134814,10.93535 -1.763302,4.68194 -3.950671,7.37587 -7.413707,9.13064 -2.101347,1.06477 -4.27668,1.32494 -5.864092,0.70135 -1.780355,-0.6994 -3.406762,-2.50676 -4.060722,-4.51253 -0.274362,-0.84151 -0.322961,-1.24401 -0.319492,-2.64611 0.0035,-1.41367 0.04839,-1.76404 0.30938,-2.41434 0.692645,-1.72584 2.009068,-2.74947 3.650104,-2.83825 l 0.805019,-0.0436 -0.529416,0.28261 c -0.79044,0.42196 -1.601202,1.26691 -1.943907,2.0259 -0.431863,0.95643 -0.435594,2.82201 -0.0081,4.06232 0.69342,2.01197 1.622986,2.8179 3.260261,2.82663 3.111273,0.0166 5.397685,-3.40723 6.228668,-9.32719 0.27528,-1.96112 0.284858,-5.93833 0.01886,-7.83333 -1.045543,-7.44862 -4.29936,-12.566912 -9.684858,-15.234404 -3.351106,-1.659837 -8.832455,-2.633343 -12.466613,-2.21411 -4.335871,0.500179 -10.018358,2.890625 -12.645091,5.319397 -1.407295,1.301234 -1.910756,2.831677 -2.017589,6.133127 -0.05028,1.55382 -0.0149,2.2468 0.158725,3.10899 0.530966,2.63664 2.080812,5.07743 3.773606,5.9429 1.689135,0.86361 3.546829,0.15924 4.455033,-1.68917 0.490888,-0.99908 0.521902,-2.52093 0.07169,-3.51778 -0.16033,-0.355 -0.291489,-0.66919 -0.291464,-0.69819 1.05e-4,-0.11976 0.748578,0.34925 1.017059,0.63731 0.159356,0.17098 0.44842,0.65828 0.642364,1.08289 0.323907,0.70915 0.347619,0.87613 0.291172,2.05039 -0.08129,1.69098 -0.437065,2.62043 -1.353058,3.53482 -1.917832,1.91447 -5.354027,1.79728 -7.945893,-0.271 -2.044451,-1.63145 -3.398985,-3.7817 -4.123291,-6.5455 -0.454993,-1.73616 -0.573551,-5.29688 -0.236187,-7.09354 0.568933,-3.029908 2.158588,-6.059995 4.417379,-8.4201 1.925355,-2.011711 3.501702,-2.797283 7.764595,-3.869475 3.124688,-0.785913 4.469475,-1.326597 5.85354,-2.353463 0.994153,-0.737582 1.796235,-1.718265 2.345489,-2.867753 0.375075,-0.784966 0.410807,-0.975175 0.411874,-2.192427 0.0011,-1.306918 -0.01003,-1.355548 -0.573799,-2.495786 C 31.583937,77.869694 31.24834,77.419072 30.328733,76.498769 28.61609,74.784888 27.960717,74.450584 24.359027,73.453687 20.830144,72.476944 18.435673,71.293444 16.886229,69.760157 15.509123,68.39741 13.489082,65.596973 12.7527,64.029732 11.97903,62.38313 11.373888,61.733263 10.016214,61.090984 9.1429704,60.677879 9.0077934,60.653011 7.6289484,60.651802 c -1.420003,-0.0013 -1.489961,0.0127 -2.4577,0.489702 -0.665412,0.327985 -1.223454,0.730959 -1.680962,1.213858 -0.673567,0.710948 -0.686259,0.717325 -0.769031,0.386307 -0.22328,-0.892932 0.54357,-2.560434 1.539637,-3.347913 1.285601,-1.016381 3.054471,-1.540957 5.638487,-1.672153 1.4055766,-0.07136 1.7132606,-0.04675 2.5312256,0.202483 1.559196,0.475083 2.667354,1.704932 3.537213,3.925652 0.898429,2.293654 1.576966,3.035617 3.701478,4.047479 2.790934,1.329264 4.804068,1.810363 6.931198,1.656416 2.674517,-0.193564 5.009571,-1.089422 6.370659,-2.444144 1.60301,-1.595514 1.831586,-3.350043 0.667096,-5.120582 -0.278544,-0.423476 -1.198413,-1.574236 -2.044177,-2.557245 -3.901924,-4.535096 -6.539685,-9.619083 -7.492302,-14.440558 -0.431701,-2.184964 -0.40786,-5.00021 0.061,-7.203435 0.66351,-3.117908 1.342387,-4.706085 3.26891,-7.647341 0.732168,-1.117812 1.516081,-2.441238 1.74203,-2.940943 0.482986,-1.068162 1.980202,-5.533516 2.445969,-7.294944 1.153052,-4.36058 0.461145,-6.98864 -2.161818,-8.2112134 -0.618744,-0.2884 -0.931449,-0.346364 -1.867656,-0.346195 -1.499915,2.64e-4 -2.481006,0.427965 -3.498629,1.5251904 -0.786208,0.847706 -1.126314,1.646561 -1.260892,2.961639 l -0.08122,0.79368 -0.243809,-0.712883 c -0.868435,-2.539258 1.199527,-5.6052524 4.415767,-6.5468874 0.92362,-0.270412 2.666851,-0.268884 3.589996,0.0031 1.893575,0.557998 3.198939,1.692098 4.078763,3.5436314 1.918711,4.0378 1.499701,9.697418 -1.270836,17.165335 -1.575331,4.24626 -2.568461,7.330341 -2.784562,8.647199 -0.551487,3.360642 0.421293,6.617734 3.003619,10.056801 3.30754,4.404889 9.310343,8.897715 13.210822,9.887701 1.539047,0.390628 3.625884,0.319284 4.478184,-0.153101 0.791054,-0.438438 1.154578,-1.120672 1.344959,-2.524112 0.378,-2.786498 -0.138269,-6.243719 -1.706642,-11.428634 -1.862082,-6.155888 -2.290418,-7.625955 -2.652662,-9.104076 -1.891707,-7.719005 -1.57938,-14.404065 0.903573,-19.340175 0.810006,-1.610291 1.475695,-2.55974 2.668633,-3.806186 4.06438,-4.2466794 11.442703,-6.7935734 17.878263,-6.1713264 9.10277,0.880138 15.22726,5.278343 17.70512,12.7146744 0.77693,2.331645 1.07713,4.474823 1.07607,7.682213 -0.002,5.178554 -0.835,9.511538 -3.00038,15.601317 -0.9921,2.790089 -1.46327,4.34781 -2.22218,7.346717 -0.41441,1.637622 -0.43512,1.83583 -0.43518,4.166809 -8e-5,2.82004 0.1555,3.76623 0.72633,4.417525 0.47818,0.545584 1.13533,0.744098 2.45742,0.742344 2.69176,-0.0036 6.30956,-1.398241 9.18203,-3.539696 2.58785,-1.929273 6.899918,-6.218147 8.172088,-8.128137 2.01078,-3.018898 2.41866,-7.036403 1.11928,-11.02451 -0.21358,-0.655526 -0.86354,-2.347809 -1.44435,-3.760628 -2.5216,-6.133794 -3.230312,-9.226154 -3.242052,-14.146202 -0.005,-2.127866 0.0376,-2.74185 0.243512,-3.505517 1.05297,-3.9047164 4.30546,-6.1654864 7.8257,-5.4395864 2.61565,0.539363 4.27412,2.037128 4.89202,4.4179724 0.20578,0.792868 0.25077,1.740224 0.1079,2.27209 -0.0664,0.24727 -0.13353,0.117761 -0.31915,-0.615837 -0.44229,-1.748055 -1.30602,-2.934357 -2.53634,-3.4835804 -0.56431,-0.251915 -0.90982,-0.307271 -1.88184,-0.301505 -2.06818,0.01227 -3.28912,0.6922084 -4.06398,2.2632224 -0.428,0.867749 -0.43657,0.919695 -0.43012,2.607675 0.007,1.868864 0.32579,3.590535 1.13916,6.155055 0.93488,2.947636 1.72247,4.640092 4.0319,8.664145 2.66099,4.636616 3.13154,6.01359 3.12184,9.135361 -0.0162,5.20764 -1.44868,9.767638 -4.70956,14.991735 -1.15068,1.843458 -2.22821,3.246112 -3.8232,4.976834 -1.64377,1.783651 -2.12863,2.65993 -2.11512,3.822663 0.011,0.947517 0.17156,1.439301 0.7265,2.225241 0.8096,1.146627 2.98386,2.23929 5.49341,2.760694 1.1427,0.237413 1.6598,0.27383 3.09203,0.217765 2.07882,-0.08138 3.35344,-0.387493 5.0577,-1.21466 1.72433,-0.836906 2.74814,-1.817994 3.48242,-3.337073 0.30654,-0.634179 0.74201,-1.533945 0.96771,-1.99948 0.53881,-1.111366 1.51546,-2.165297 2.38126,-2.569688 0.98606,-0.460563 1.88492,-0.614683 3.57629,-0.613201 2.3602,0.0021 3.63844,0.434321 4.98931,1.687187 0.82158,0.761976 1.48928,1.916916 1.65344,2.859997 l 0.0882,0.50654 -0.64449,-0.643544 c -0.82996,-0.828744 -1.6623,-1.21123 -3.03942,-1.396717 -1.29348,-0.17422 -2.78485,-0.0016 -3.60849,0.417693 -0.7745,0.394261 -1.58278,1.398709 -2.5197,3.131198 -1.78191,3.295009 -3.27714,5.038378 -5.38971,6.284132 -2.01246,1.186727 -5.60526,2.697847 -8.1247,3.417225 -2.5577,0.730306 -4.87022,2.612583 -5.99591,4.880377 -0.39804,0.801886 -0.42534,0.946656 -0.4265,2.261013 l -10e-4,1.404268 0.63779,1.287592 c 0.76434,1.543092 1.87246,2.75849 2.99622,3.2863 0.40002,0.18788 1.63458,0.58756 2.74347,0.888179 2.64121,0.716029 4.01576,1.205587 5.78676,2.061006 5.55484,2.683063 7.98633,6.482657 8.54001,13.345154 0.17985,2.22892 0.034,4.08424 -0.44204,5.62157 -1.63347,5.27556 -6.79245,8.5864 -10.59809,6.80146 -1.06755,-0.50071 -1.86889,-1.28147 -2.32747,-2.2677 -0.29697,-0.63867 -0.34642,-0.9208 -0.33967,-1.9381 0.0106,-1.59332 0.36143,-2.50386 1.342,-3.48272 0.39303,-0.39234 0.74147,-0.68642 0.77432,-0.65351 0.0328,0.0329 -0.0688,0.41179 -0.22598,0.84196 -0.41527,1.13682 -0.42526,2.95439 -0.0204,3.71306 0.79886,1.49704 2.77885,2.07179 4.35148,1.26316 1.71904,-0.88391 3.5767,-3.59332 4.23085,-6.1707 0.71025,-2.79845 -0.0545,-6.16754 -1.87254,-8.249521 -2.02697,-2.321237 -6.89185,-4.560622 -11.88932,-5.47285 -2.09207,-0.381884 -6.25237,-0.428837 -8.062448,-0.09099 -4.36945,0.81553 -7.62389,2.600012 -10.32868,5.663461 -3.70507,4.19636 -5.55934,9.99468 -5.32451,16.64986 0.18546,5.25627 1.38244,8.6515 3.87278,10.98519 1.05279,0.98656 1.71638,1.31602 2.66028,1.32076 1.54668,0.008 2.8538,-1.3123 3.52188,-3.55682 0.6808,-2.28717 -0.32453,-4.63043 -2.49368,-5.81245 -0.21546,-0.11741 -0.1174,-0.14449 0.5293,-0.14614 2.62158,-0.007 4.61266,2.82703 4.39485,6.25486 -0.19899,3.1317 -2.36794,5.98942 -5.06987,6.67986 -0.68862,0.17596 -1.74797,0.26932 -2.24691,0.19802 z"
       id="path403" />
  </g>
  <g
     inkscape:groupmode="layer"
     id="layer6"
     inkscape:label="wings colour"
     style="display:inline"
     transform="translate(-2.6823238,-4.050857)">
    <path
       style="display:inline;fill:#0f65a6;fill-opacity:1;stroke-width:0.132292"
       d="M 51.210287,58.896546 C 50.794864,58.721283 49.842796,58.227468 49.09458,57.799181 l -1.360386,-0.778703 1.521417,-0.07191 c 1.669116,-0.07888 2.114193,-0.23055 2.693546,-0.91785 0.469921,-0.557477 0.645821,-1.265576 0.738221,-2.971741 l 0.07865,-1.452227 0.618686,1.320596 c 0.725601,1.548808 1.428763,3.582432 1.424162,4.118843 -0.005,0.583115 -0.450487,1.428583 -0.933696,1.77202 -0.643972,0.457698 -1.692621,0.488522 -2.664888,0.07833 z"
       id="path407" />
    <path
       style="display:inline;fill:#0f65a6;fill-opacity:1;stroke-width:0.132292"
       d="m 81.488522,58.595807 c -0.339789,-0.377277 -0.496049,-1.153488 -0.404458,-2.009116 0.126719,-1.183798 0.684749,-3.240979 1.13906,-4.199149 l 0.423275,-0.892712 0.0971,1.622901 c 0.19203,3.209497 0.66648,3.732879 3.391181,3.740915 l 1.419455,0.0042 -0.330957,0.258331 c -0.429284,0.335085 -2.000951,1.104353 -2.845493,1.392754 -0.363911,0.124272 -1.108165,0.254249 -1.6539,0.288838 -0.877342,0.0556 -1.020384,0.03164 -1.235265,-0.206947 z"
       id="path409" />
    <path
       style="display:inline;fill:#0f65a6;fill-opacity:1;stroke-width:0.132292"
       d="m 97.995047,68.420773 c -1.32094,-0.158787 -1.55316,-0.222957 -1.91713,-0.529767 -0.73721,-0.621427 -0.44606,-1.694794 0.92692,-3.417139 1.09148,-1.369216 4.377363,-4.335158 4.579003,-4.133162 0.0329,0.03291 -0.0305,0.275355 -0.14086,0.538753 -0.3125,0.746077 -0.26066,2.141884 0.10911,2.937758 0.57745,1.242891 2.08807,2.288702 4.39858,3.045169 0.5549,0.181679 1.11687,0.330422 1.24881,0.330536 0.58422,5.29e-4 0.30195,0.242147 -0.51041,0.436944 -2.60015,0.623495 -6.861663,1.011171 -8.694023,0.790908 z"
       id="path411" />
    <path
       style="display:inline;fill:#0f65a6;fill-opacity:1;stroke-width:0.132292"
       d="m 104.06497,86.096825 c -1.50585,-0.510529 -5.003763,-2.222153 -5.641113,-2.760353 -0.60208,-0.50842 -1.16807,-1.619501 -1.16748,-2.29186 0.001,-1.471517 1.67248,-3.253645 3.943563,-4.205351 0.82896,-0.347379 4.24019,-1.312145 4.64157,-1.312733 0.0989,-1.42e-4 -0.28924,0.494343 -0.86247,1.09886 -0.57323,0.604515 -1.24898,1.482008 -1.50165,1.949984 -0.43575,0.80704 -0.46203,0.930204 -0.5101,2.391138 l -0.0507,1.540269 0.62924,1.220954 c 0.36083,0.70013 0.93624,1.553133 1.34893,1.99967 0.39583,0.428297 0.63887,0.777423 0.54008,0.775838 -0.0988,-0.0016 -0.71523,-0.184473 -1.36989,-0.406416 z"
       id="path413" />
    <path
       style="display:inline;fill:#0f65a6;fill-opacity:1;stroke-width:0.132292"
       d="m 84.598828,103.17439 c 0.139896,-2.96875 0.839031,-6.275853 1.682012,-7.956394 0.873371,-1.74113 2.389666,-2.929466 4.31724,-3.383475 1.787144,-0.420931 6.402957,-0.03359 9.360137,0.785466 l 1.058073,0.29306 -0.85999,0.106969 c -3.581003,0.445415 -6.218513,1.361937 -8.733916,3.035003 -1.392285,0.92605 -3.597883,3.191333 -4.665011,4.791251 -0.48391,0.72551 -1.186291,1.94393 -1.560846,2.70758 l -0.681011,1.38847 z"
       id="path415" />
    <path
       style="display:inline;fill:#0f65a6;fill-opacity:1;stroke-width:0.132292"
       d="m 61.52266,100.06722 c -0.0041,-2.912201 1.389028,-8.710788 2.732132,-11.372028 0.894736,-1.772838 2.192668,-2.5831 3.912986,-2.442763 2.298748,0.187521 3.840022,1.903399 4.658188,5.185889 0.573569,2.301166 1.140502,6.353021 1.120005,8.004632 l -0.009,0.7276 -0.243697,-0.687214 c -0.726776,-2.049454 -2.114079,-4.032829 -3.442489,-4.921591 -1.008372,-0.674645 -1.665486,-0.858888 -2.78435,-0.78069 -2.116582,0.147929 -3.921678,2.04226 -5.378164,5.644041 l -0.564523,1.396024 z"
       id="path417" />
    <path
       style="display:inline;fill:#0f65a6;fill-opacity:1;stroke-width:0.132292"
       d="m 50.94442,105.00487 c -1.530755,-4.35745 -4.476096,-7.808105 -8.320934,-9.748504 -1.354873,-0.683773 -3.76393,-1.461182 -5.570717,-1.79769 -2.535015,-0.472133 -2.510628,-0.440481 -0.592315,-0.768784 3.845438,-0.658116 5.460267,-0.849934 7.274478,-0.864108 1.605674,-0.01254 1.966471,0.02532 2.71173,0.284523 2.412127,0.838967 3.226382,2.322459 4.086058,7.444409 0.377484,2.249044 0.859954,6.199384 0.768327,6.290854 -0.02495,0.0249 -0.185442,-0.3534 -0.356627,-0.8407 z"
       id="path419" />
    <path
       style="display:inline;fill:#0f65a6;fill-opacity:1;stroke-width:0.132292"
       d="m 29.37813,86.862302 c 1.237295,-0.858039 2.204337,-1.945669 2.901535,-3.263352 0.322704,-0.609899 0.350665,-0.78866 0.351946,-2.250035 l 0.0013,-1.5875 -0.526479,-0.992648 c -0.344955,-0.650404 -0.914447,-1.398601 -1.651743,-2.17006 l -1.125265,-1.177409 0.512704,0.09459 c 0.80286,0.148125 2.663024,0.710182 3.931674,1.187977 3.571806,1.345197 5.26705,3.569991 4.102812,5.384424 -1.125773,1.754484 -3.74972,3.44138 -7.082877,4.553476 -1.508445,0.503288 -1.914681,0.566571 -1.415698,0.220536 z"
       id="path421" />
    <path
       style="display:inline;fill:#0f65a6;fill-opacity:1;stroke-width:0.0330729"
       d="M 36.121904,68.640202 C 34.949337,68.567782 34.649503,68.53279 33.161878,68.29477 32.264843,68.151247 29.530856,67.683078 28.614561,67.516088 l -0.297447,-0.05421 0.562031,-0.145741 c 1.743138,-0.452014 2.923537,-1.049136 4.02767,-2.037463 0.644167,-0.576601 1.251553,-1.480058 1.396322,-2.076958 0.07169,-0.295569 0.09917,-1.091189 0.05369,-1.554091 -0.04285,-0.436079 -0.103349,-0.64311 -0.336187,-1.150398 -0.165349,-0.360246 -0.188325,-0.43385 -0.135441,-0.43385 0.04748,0 0.605457,0.405455 1.054878,0.766532 1.887935,1.516814 3.794551,3.358941 4.399883,4.25106 0.177144,0.26107 0.348015,0.608102 0.436203,0.885923 0.09293,0.292764 0.12909,0.955368 0.06739,1.235009 -0.09208,0.417332 -0.34385,0.777827 -0.764747,1.09498 -0.315216,0.237525 -0.465534,0.287102 -1.005607,0.331661 -0.360603,0.02975 -1.54387,0.03682 -1.951302,0.01167 z"
       id="path454" />
  </g>
  <g
     inkscape:groupmode="layer"
     id="layer7"
     inkscape:label="eyes colour"
     transform="translate(-2.6823238,-4.050857)">
    <path
       style="display:inline;fill:#5ea6ca;fill-opacity:1;stroke-width:0.132292"
       d="m 74.886011,44.759296 c 2.945196,-3.25913 5.776798,-7.330638 7.557578,-10.866895 0.18856,-0.374441 0.19669,-0.353676 0.33674,0.860192 0.0789,0.684141 0.17917,1.749941 0.22277,2.368442 0.1038,1.472676 -0.15284,4.599249 -0.40963,4.990409 -0.25605,0.390027 -1.88996,1.534546 -2.97101,2.081122 -0.473151,0.239223 -1.366448,0.612791 -1.985102,0.830152 -0.96653,0.339582 -1.538978,0.484775 -3.551584,0.900813 -0.239506,0.04951 -0.05812,-0.214378 0.800238,-1.164235 z"
       id="path425" />
    <path
       style="display:inline;fill:#5ea6ca;fill-opacity:1;stroke-width:0.132292"
       d="M 60.234868,45.571874 C 57.878317,44.953532 55.989502,44.136718 54.554127,43.115255 53.258854,42.193489 53.292739,42.267334 53.1468,40.04858 c -0.121581,-1.84845 0.01469,-5.228375 0.246171,-6.105736 0.06671,-0.252823 0.253886,0.02627 1.046549,1.560481 1.541513,2.983605 3.976375,6.447022 6.331095,9.005524 1.233035,1.339744 1.323644,1.45819 1.110639,1.451817 -0.102227,-0.0031 -0.8431,-0.178017 -1.646386,-0.388792 z"
       id="path427" />
    <text
       xml:space="preserve"
       id="text654"
       style="font-style:normal;font-weight:normal;font-size:10.5833px;line-height:1.25;font-family:sans-serif;white-space:pre;shape-inside:url(#rect656);fill:#000000;fill-opacity:1;stroke:none;" />
    <text
       xml:space="preserve"
       style="font-style:normal;font-weight:normal;font-size:10.5833px;line-height:1.25;font-family:sans-serif;fill:#000000;fill-opacity:1;stroke:none;stroke-width:0.264583"
       x="136.16461"
       y="93.215439"
       id="text662"><tspan
         sodipodi:role="line"
         id="tspan660"
         x="136.16461"
         y="93.215439"
         style="stroke-width:0.264583" /></text>
    <text
       xml:space="preserve"
       style="font-style:normal;font-weight:normal;font-size:10.5833px;line-height:1.25;font-family:sans-serif;fill:#000000;fill-opacity:1;stroke:none;stroke-width:0.264583"
       x="142.5146"
       y="89.511269"
       id="text666"><tspan
         sodipodi:role="line"
         id="tspan664"
         x="142.5146"
         y="89.511269"
         style="stroke-width:0.264583" /></text>
  </g>
  <g
     inkscape:groupmode="layer"
     id="layer9"
     inkscape:label="txt colour"
     style="display:inline">
    <path
       style="fill:#004455;fill-opacity:1;stroke-width:0.132292"
       d="M 133.48605,55.297913 V 33.921272 l 10.08724,0.03922 10.08724,0.03921 0.85276,0.307798 c 1.61955,0.58457 3.11331,1.866995 4.09718,3.517516 0.57519,0.964936 1.27326,2.820456 1.64197,4.364474 0.28377,1.188344 0.28725,1.347205 0.28725,13.10917 0,10.815483 -0.0212,12.010127 -0.23134,13.040131 -0.46085,2.258788 -1.3901,4.376611 -2.50424,5.707335 -0.70739,0.844891 -2.03686,1.782596 -3.13203,2.209086 l -0.87926,0.342405 -10.15338,0.03847 -10.15339,0.03847 z m 16.45453,16.062454 c 1.14916,-0.319077 2.37842,-2.137074 2.78364,-4.116808 0.30946,-1.511919 0.31338,-22.21513 0.004,-23.757507 -0.37121,-1.853589 -1.36066,-3.440933 -2.48375,-3.984615 -0.54059,-0.261691 -0.78399,-0.276214 -4.62986,-0.276214 h -4.05927 v 16.139582 16.139583 l 3.93568,-7.94e-4 c 2.40434,-5.29e-4 4.13542,-0.0562 4.44906,-0.143282 z"
       id="path595" />
    <path
       style="fill:#004455;fill-opacity:1;stroke-width:0.132292"
       d="M 166.29438,55.29866 V 33.933557 h 13.03073 13.03073 v 2.645833 2.645833 h -8.92969 -8.92969 v 6.746875 6.746874 h 6.4823 6.48229 v 2.513542 2.513541 h -6.48229 -6.4823 v 6.879167 6.879166 h 8.92969 8.92969 v 2.579687 2.579688 h -13.03073 -13.03073 z"
       id="path597" />
    <path
       style="fill:#004455;fill-opacity:1;stroke-width:0.132292"
       d="M 207.43709,68.870432 V 61.077098 L 202.1968,47.736839 c -2.88215,-7.337144 -5.27056,-13.445264 -5.30757,-13.5736 -0.0635,-0.220041 0.17954,-0.231349 4.26426,-0.198438 l 4.33154,0.0349 2.82664,9.458854 c 1.55465,5.20237 2.91825,9.771393 3.03024,10.153385 0.24281,0.828249 0.5242,0.905716 0.72078,0.198437 0.0758,-0.272851 1.43904,-4.841874 3.02934,-10.153384 l 2.89144,-9.657292 4.26772,-0.03492 c 4.02292,-0.03292 4.26404,-0.02154 4.20354,0.198438 -0.0353,0.128349 -2.51301,6.286589 -5.50602,13.684977 l -5.44183,13.451614 v 7.681978 7.681979 h -4.0349 -4.03489 z"
       id="path599" />
    <path
       style="fill:#004455;fill-opacity:1;stroke-width:0.132292"
       d="m 229.85964,76.368022 c 0.0392,-0.164764 2.00689,-9.675743 4.37266,-21.135508 2.36576,-11.459765 4.33356,-20.940788 4.37289,-21.068939 0.067,-0.218178 0.40943,-0.230804 5.3827,-0.198438 l 5.31119,0.03457 4.3952,21.10052 c 2.41736,11.605286 4.39865,21.2047 4.40286,21.33203 0.007,0.215562 -0.26804,0.231484 -3.99417,0.231106 l -4.00182,-5.29e-4 -0.6386,-4.266002 c -0.35123,-2.346309 -0.66778,-4.370188 -0.70344,-4.497519 -0.0602,-0.214977 -0.40373,-0.23151 -4.81033,-0.23151 h -4.74548 l -0.0839,0.562239 c -0.0461,0.309232 -0.33428,2.318411 -0.64036,4.464844 l -0.5565,3.902604 -4.0671,0.03499 -4.0671,0.03499 z m 18.0587,-14.00163 c 0,-0.07819 -0.77391,-5.266645 -1.7198,-11.529904 -0.94588,-6.263256 -1.71979,-11.438032 -1.71979,-11.499502 0,-0.06147 -0.23812,-0.111763 -0.52916,-0.111763 -0.35568,0 -0.52917,0.05847 -0.52917,0.178342 0,0.09809 -0.77366,5.292191 -1.71924,11.542448 -0.94559,6.250257 -1.71949,11.408753 -1.71979,11.463323 -2.7e-4,0.05457 1.78538,0.09922 3.9682,0.09922 2.74135,0 3.96875,-0.04397 3.96875,-0.142164 z"
       id="path601" />
    <path
       style="fill:#2c89a0;fill-opacity:1;stroke-width:0.132292"
       d="m 133.68072,87.379495 v -0.463021 h 0.92604 0.92604 v -3.307291 -3.307292 h -0.92604 -0.92604 v -0.46302 -0.463021 h 2.57969 2.57968 v 0.463021 0.46302 h -0.92604 -0.92604 v 3.307292 3.307291 h 0.92604 0.92604 v 0.463021 0.463021 h -2.57968 -2.57969 z"
       id="path674" />
    <path
       style="fill:#2c89a0;fill-opacity:1;stroke-width:0.132292"
       d="m 140.16301,87.379495 v -0.463021 h 1.83589 c 2.13122,0 2.16784,-0.01879 2.10707,-1.080666 l -0.0404,-0.705271 -1.63165,-0.06615 -1.63166,-0.06615 -0.37643,-0.421552 c -0.68902,-0.771636 -0.69011,-2.220518 -0.002,-2.990808 l 0.37872,-0.424098 2.12773,-0.04469 2.12773,-0.0447 v 0.464394 0.464391 l -1.79102,0.04332 c -1.98696,0.04806 -2.03985,0.07205 -2.04341,0.926843 -0.003,0.796552 0.21138,0.902417 1.83007,0.902417 1.55416,0 1.84698,0.105675 2.20356,0.795213 0.26484,0.512141 0.25227,1.761731 -0.0236,2.342997 -0.33842,0.713171 -0.77394,0.83054 -3.08181,0.83054 h -1.98862 z"
       id="path676" />
    <path
       style="fill:#2c89a0;fill-opacity:1;stroke-width:0.132292"
       d="m 152.9953,83.602582 v -4.239935 l 0.74156,0.03967 0.74156,0.03968 1.27589,3.174999 1.27589,3.175 0.0354,-3.208072 0.0354,-3.208073 h 0.59296 0.59296 v 4.233333 4.233333 h -0.84463 -0.84462 l -1.02178,-2.480469 c -1.62043,-3.933774 -1.45042,-3.881006 -1.49176,-0.46302 l -0.0356,2.943489 h -0.52663 -0.52664 z"
       id="path678" />
    <path
       style="fill:#2c89a0;fill-opacity:1;stroke-width:0.132292"
       d="m 160.32673,87.70684 c -0.2242,-0.0687 -0.50715,-0.234865 -0.62877,-0.369255 -0.35152,-0.388427 -0.52036,-1.665004 -0.44939,-3.397673 0.1088,-2.655797 0.23613,-2.778125 2.89182,-2.778125 1.741,0 1.82781,0.01299 2.15751,0.322808 0.53312,0.500978 0.63307,1.070927 0.58218,3.319822 -0.0649,2.866485 -0.13485,2.948458 -2.55822,2.996112 -0.87312,0.01717 -1.77093,-0.025 -1.99513,-0.09369 z m 2.76877,-0.987591 c 0.35848,-0.358482 0.46617,-3.502975 0.1483,-4.330166 -0.17784,-0.462774 -1.93822,-0.478385 -2.27329,-0.02016 -0.11972,0.163738 -0.17,0.792332 -0.17,2.125443 0,1.716556 0.0247,1.917599 0.26458,2.157526 0.33424,0.33424 1.71764,0.380132 2.03041,0.06736 z"
       id="path680" />
    <path
       style="fill:#2c89a0;fill-opacity:1;stroke-width:0.132292"
       d="m 172.78175,87.412568 c -0.0381,-0.236471 -0.21951,-1.97776 -0.40311,-3.869531 -0.1836,-1.891771 -0.36199,-3.603294 -0.39642,-3.803385 -0.062,-0.360199 -0.0554,-0.363802 0.6617,-0.363802 0.49254,0 0.72352,0.05291 0.72186,0.165364 -0.0105,0.709756 0.45801,6.406655 0.53383,6.4921 0.0947,0.106664 0.23589,-0.723546 0.54177,-3.184808 l 0.15208,-1.223698 h 0.44571 c 0.24514,0 0.44578,0.04465 0.44586,0.09922 8e-5,0.05457 0.11908,1.021953 0.26444,2.149739 0.14535,1.127787 0.26435,2.095169 0.26443,2.14974 8e-5,0.05457 0.0507,0.09922 0.1124,0.09922 0.0617,0 0.22016,-1.518046 0.35206,-3.373437 l 0.23981,-3.373437 h 0.70004 0.70004 l -0.072,0.628385 c -0.0396,0.345612 -0.23076,2.235729 -0.42478,4.20026 l -0.35277,3.571875 -0.80396,0.03882 -0.80395,0.03882 -0.23694,-1.626319 c -0.26467,-1.816677 -0.39261,-2.215764 -0.51789,-1.615454 -0.0771,0.369274 -0.47939,3.024018 -0.47939,3.163261 0,0.03686 -0.35449,0.06702 -0.78776,0.06702 -0.78634,0 -0.78788,-7.94e-4 -0.85704,-0.429948 z"
       id="path682" />
    <path
       style="fill:#2c89a0;fill-opacity:1;stroke-width:0.132292"
       d="m 179.72219,87.673275 c -0.17972,-0.09094 -0.46249,-0.366755 -0.62839,-0.612925 -0.56138,-0.833028 -0.33037,-2.608885 0.40651,-3.125015 0.2034,-0.142462 0.67232,-0.19386 1.7687,-0.19386 h 1.49191 v -0.570027 c 0,-0.971976 -0.16492,-1.076843 -1.77505,-1.128733 l -1.39995,-0.04511 v -0.463667 -0.463664 l 1.82517,0.04576 c 1.9889,0.04986 2.42552,0.189233 2.67866,0.855038 0.0695,0.182833 0.12638,1.578705 0.12638,3.101935 v 2.769513 l -2.08359,-0.0019 c -1.40064,-0.0013 -2.1907,-0.05615 -2.41035,-0.167291 z m 3.03873,-1.966327 v -1.20953 l -1.06317,0.07287 c -0.58475,0.04008 -1.1503,0.145174 -1.25677,0.23354 -0.24136,0.200308 -0.26847,1.720278 -0.0349,1.953894 0.098,0.09797 0.57915,0.15875 1.25677,0.15875 h 1.09802 z"
       id="path684" />
    <path
       style="fill:#2c89a0;fill-opacity:1;stroke-width:0.132292"
       d="m 187.86814,87.727647 c -0.2106,-0.04596 -0.50793,-0.251219 -0.66076,-0.456126 -0.25392,-0.340465 -0.28202,-0.582641 -0.32614,-2.811197 l -0.0483,-2.438641 h -0.7131 -0.7131 v -0.463021 -0.463021 h 0.7276 0.72761 V 80.235746 79.37585 h 0.79375 0.79375 v 0.859896 0.859895 h 1.05833 1.05833 v 0.463021 0.463021 h -1.05833 -1.05833 v 2.171994 c 0,1.194596 0.0363,2.266494 0.0806,2.381996 0.0453,0.117975 0.30615,0.246073 0.59531,0.292311 0.48008,0.07677 0.51473,0.11234 0.51473,0.528421 v 0.446111 l -0.69453,-0.01564 c -0.38199,-0.0086 -0.86683,-0.05326 -1.07742,-0.09922 z"
       id="path686" />
    <path
       style="fill:#2c89a0;fill-opacity:1;stroke-width:0.132292"
       d="m 192.6828,87.669685 c -0.79118,-0.269804 -0.9256,-0.73479 -0.92584,-3.20267 -2.6e-4,-3.198225 0.20568,-3.4265 3.02058,-3.347376 1.49277,0.04196 1.50109,0.044 1.87083,0.458142 0.66883,0.749162 0.6614,2.322949 -0.0144,3.04228 -0.27628,0.294084 -0.38408,0.312039 -1.87349,0.312039 h -1.58034 l 0.0587,0.811527 c 0.0794,1.097682 0.20224,1.172847 1.91662,1.172847 h 1.36378 v 0.463021 0.463021 l -1.68672,-0.0075 c -0.93884,-0.0042 -1.89202,-0.07748 -2.14974,-0.165365 z m 2.88396,-3.690085 c 0.0873,-0.08731 0.15875,-0.505503 0.15875,-0.929315 0,-0.718333 -0.0247,-0.780097 -0.3638,-0.911191 -0.44171,-0.170738 -1.70291,-0.088 -1.91664,0.125738 -0.085,0.08495 -0.17909,0.541251 -0.2092,1.013992 l -0.0547,0.859526 h 1.11343 c 0.68962,0 1.17386,-0.06043 1.27219,-0.15875 z"
       id="path688" />
    <path
       style="fill:#2c89a0;fill-opacity:1;stroke-width:0.132292"
       d="m 198.39484,85.091193 c 0.0365,-2.356122 0.0761,-2.802281 0.2754,-3.106099 0.42671,-0.650415 0.92314,-0.797732 2.90917,-0.863307 l 1.81901,-0.06006 v 0.46333 0.463333 l -1.51079,0.05783 c -0.97438,0.0373 -1.585,0.119415 -1.71979,0.231283 -0.17796,0.147691 -0.209,0.573826 -0.209,2.869234 v 2.695779 h -0.80333 -0.80333 z"
       id="path690" />
  </g>
</svg>
